<?xml version="1.0" encoding="utf-8"?>
<!-- Generator: Adobe Illustrator 22.1.0, SVG Export Plug-In . SVG Version: 6.00 Build 0)  -->
<svg version="1.1" xmlns="http://www.w3.org/2000/svg" xmlns:xlink="http://www.w3.org/1999/xlink" x="0px" y="0px"
	 viewBox="0 0 96.2 53.8" style="enable-background:new 0 0 96.2 53.8;" xml:space="preserve">
<style type="text/css">
	.st0{fill:#B2B2B2;}
	.st1{opacity:0.6;fill:#B2B2B2;enable-background:new    ;}
</style>
<g id="Layer_2">
</g>
<g id="Layer_1">
	<path class="st0" d="M12,20H4.2v31.4h8.4c0,0,0-16.4-0.2-17.5c0,0,4.5,7,12.2,17.5h7.1V20h-8.3c0,0,0.1,15,0.2,16.5
		C23.6,36.5,21.4,32.3,12,20z"/>
	<path class="st1" d="M49.9,12.4c-4.5,0-8.1,3.6-8.1,8.1s3.6,8.1,8.1,8.1c4.5,0,8.1-3.6,8.1-8.1S54.3,12.4,49.9,12.4z M66.3,20.5
		C66.3,29.6,59,37,50,37c-9,0-16.4-7.4-16.4-16.4S40.9,4.1,50,4.1C59,4.1,66.3,11.4,66.3,20.5z"/>
	<path class="st0" d="M92.6,7.4l-4.2,6.9c0,0-3.6-3-8.6-3c-3.6,0-3.2,1.6-3.2,1.9c0,0.2-0.3,1.6,5.9,2.9c6.1,1.3,10.7,3.6,10.6,10.2
		c-0.1,6.5-4.9,9.9-13,9.9c-8,0-13-3.9-13-3.9l4.1-6.8c0,0,4.2,3,9.4,3.1c4.1,0.1,3.9-1.8,3.9-1.8c0-1.6-1.9-2.5-7.6-3.6
		c-5.7-1.2-9-4.1-9-9c0-5.2,3.1-10.5,12.3-10.5C88.1,3.7,92.6,7.4,92.6,7.4z"/>
</g>
</svg>
